<mxfile host="app.diagrams.net" modified="2023-04-05T14:41:09.620Z" agent="Mozilla/5.0 (Macintosh; Intel Mac OS X 10_15_7) AppleWebKit/605.1.15 (KHTML, like Gecko) Version/15.6.1 Safari/605.1.15" etag="IlCID6N1u4QNuVqoTU1J" version="21.1.4" type="device">
  <diagram id="R2lEEEUBdFMjLlhIrx00" name="Page-1">
    <mxGraphModel dx="954" dy="561" grid="1" gridSize="10" guides="1" tooltips="1" connect="1" arrows="1" fold="1" page="1" pageScale="1" pageWidth="850" pageHeight="1100" math="0" shadow="0" extFonts="Permanent Marker^https://fonts.googleapis.com/css?family=Permanent+Marker">
      <root>
        <mxCell id="0" />
        <mxCell id="1" parent="0" />
        <mxCell id="E_e-mIuuizZhB7MjT7xw-5" style="rounded=0;orthogonalLoop=1;jettySize=auto;html=1;entryX=0;entryY=0.5;entryDx=0;entryDy=0;edgeStyle=orthogonalEdgeStyle;" edge="1" parent="1" source="E_e-mIuuizZhB7MjT7xw-1" target="E_e-mIuuizZhB7MjT7xw-2">
          <mxGeometry relative="1" as="geometry">
            <Array as="points">
              <mxPoint x="220" y="280" />
              <mxPoint x="220" y="130" />
            </Array>
          </mxGeometry>
        </mxCell>
        <mxCell id="E_e-mIuuizZhB7MjT7xw-6" style="edgeStyle=orthogonalEdgeStyle;rounded=0;orthogonalLoop=1;jettySize=auto;html=1;entryX=0;entryY=0.5;entryDx=0;entryDy=0;" edge="1" parent="1" source="E_e-mIuuizZhB7MjT7xw-1" target="E_e-mIuuizZhB7MjT7xw-3">
          <mxGeometry relative="1" as="geometry">
            <Array as="points">
              <mxPoint x="220" y="280" />
              <mxPoint x="220" y="220" />
            </Array>
          </mxGeometry>
        </mxCell>
        <mxCell id="E_e-mIuuizZhB7MjT7xw-7" style="edgeStyle=orthogonalEdgeStyle;rounded=0;orthogonalLoop=1;jettySize=auto;html=1;entryX=0;entryY=0.5;entryDx=0;entryDy=0;" edge="1" parent="1" source="E_e-mIuuizZhB7MjT7xw-1" target="E_e-mIuuizZhB7MjT7xw-4">
          <mxGeometry relative="1" as="geometry">
            <Array as="points">
              <mxPoint x="220" y="280" />
              <mxPoint x="220" y="480" />
            </Array>
          </mxGeometry>
        </mxCell>
        <mxCell id="E_e-mIuuizZhB7MjT7xw-12" style="edgeStyle=orthogonalEdgeStyle;rounded=0;orthogonalLoop=1;jettySize=auto;html=1;entryX=0;entryY=0.5;entryDx=0;entryDy=0;" edge="1" parent="1" source="E_e-mIuuizZhB7MjT7xw-1" target="E_e-mIuuizZhB7MjT7xw-11">
          <mxGeometry relative="1" as="geometry">
            <Array as="points">
              <mxPoint x="220" y="280" />
              <mxPoint x="220" y="310" />
            </Array>
          </mxGeometry>
        </mxCell>
        <mxCell id="E_e-mIuuizZhB7MjT7xw-1" value="ABAState" style="rounded=1;whiteSpace=wrap;html=1;" vertex="1" parent="1">
          <mxGeometry x="80" y="250" width="120" height="60" as="geometry" />
        </mxCell>
        <mxCell id="E_e-mIuuizZhB7MjT7xw-30" style="edgeStyle=orthogonalEdgeStyle;rounded=0;orthogonalLoop=1;jettySize=auto;html=1;entryX=-0.025;entryY=0.5;entryDx=0;entryDy=0;entryPerimeter=0;endArrow=none;endFill=0;" edge="1" parent="1" source="E_e-mIuuizZhB7MjT7xw-2" target="E_e-mIuuizZhB7MjT7xw-25">
          <mxGeometry relative="1" as="geometry" />
        </mxCell>
        <mxCell id="E_e-mIuuizZhB7MjT7xw-2" value="ABA" style="rounded=1;whiteSpace=wrap;html=1;" vertex="1" parent="1">
          <mxGeometry x="360" y="100" width="120" height="60" as="geometry" />
        </mxCell>
        <mxCell id="E_e-mIuuizZhB7MjT7xw-31" style="edgeStyle=orthogonalEdgeStyle;rounded=0;orthogonalLoop=1;jettySize=auto;html=1;entryX=0;entryY=0.5;entryDx=0;entryDy=0;entryPerimeter=0;endArrow=none;endFill=0;" edge="1" parent="1" source="E_e-mIuuizZhB7MjT7xw-3" target="E_e-mIuuizZhB7MjT7xw-26">
          <mxGeometry relative="1" as="geometry" />
        </mxCell>
        <mxCell id="E_e-mIuuizZhB7MjT7xw-3" value="ABA" style="rounded=1;whiteSpace=wrap;html=1;" vertex="1" parent="1">
          <mxGeometry x="360" y="190" width="120" height="60" as="geometry" />
        </mxCell>
        <mxCell id="E_e-mIuuizZhB7MjT7xw-28" style="edgeStyle=orthogonalEdgeStyle;rounded=0;orthogonalLoop=1;jettySize=auto;html=1;entryX=-0.025;entryY=0.5;entryDx=0;entryDy=0;entryPerimeter=0;endArrow=none;endFill=0;" edge="1" parent="1" source="E_e-mIuuizZhB7MjT7xw-4" target="E_e-mIuuizZhB7MjT7xw-27">
          <mxGeometry relative="1" as="geometry" />
        </mxCell>
        <mxCell id="E_e-mIuuizZhB7MjT7xw-4" value="ABA" style="rounded=1;whiteSpace=wrap;html=1;" vertex="1" parent="1">
          <mxGeometry x="360" y="450" width="120" height="60" as="geometry" />
        </mxCell>
        <mxCell id="E_e-mIuuizZhB7MjT7xw-8" value=". . ." style="text;html=1;align=center;verticalAlign=middle;resizable=0;points=[];autosize=1;strokeColor=none;fillColor=none;" vertex="1" parent="1">
          <mxGeometry x="400" y="380" width="40" height="30" as="geometry" />
        </mxCell>
        <mxCell id="E_e-mIuuizZhB7MjT7xw-9" value="{node_id: 1, priority: 1}" style="text;html=1;align=center;verticalAlign=middle;resizable=0;points=[];autosize=1;strokeColor=none;fillColor=none;" vertex="1" parent="1">
          <mxGeometry x="220" y="100" width="140" height="30" as="geometry" />
        </mxCell>
        <mxCell id="E_e-mIuuizZhB7MjT7xw-10" value="{node_id: 1, priority: 2}" style="text;html=1;align=center;verticalAlign=middle;resizable=0;points=[];autosize=1;strokeColor=none;fillColor=none;" vertex="1" parent="1">
          <mxGeometry x="220" y="190" width="140" height="30" as="geometry" />
        </mxCell>
        <mxCell id="E_e-mIuuizZhB7MjT7xw-19" style="edgeStyle=orthogonalEdgeStyle;rounded=0;orthogonalLoop=1;jettySize=auto;html=1;entryX=0;entryY=0.5;entryDx=0;entryDy=0;" edge="1" parent="1" source="E_e-mIuuizZhB7MjT7xw-11" target="E_e-mIuuizZhB7MjT7xw-15">
          <mxGeometry relative="1" as="geometry">
            <Array as="points">
              <mxPoint x="520" y="310" />
              <mxPoint x="520" y="240" />
            </Array>
          </mxGeometry>
        </mxCell>
        <mxCell id="E_e-mIuuizZhB7MjT7xw-20" style="edgeStyle=orthogonalEdgeStyle;rounded=0;orthogonalLoop=1;jettySize=auto;html=1;entryX=0;entryY=0.5;entryDx=0;entryDy=0;" edge="1" parent="1" source="E_e-mIuuizZhB7MjT7xw-11" target="E_e-mIuuizZhB7MjT7xw-16">
          <mxGeometry relative="1" as="geometry">
            <Array as="points">
              <mxPoint x="520" y="310" />
              <mxPoint x="520" y="320" />
            </Array>
          </mxGeometry>
        </mxCell>
        <mxCell id="E_e-mIuuizZhB7MjT7xw-21" style="edgeStyle=orthogonalEdgeStyle;rounded=0;orthogonalLoop=1;jettySize=auto;html=1;entryX=0;entryY=0.5;entryDx=0;entryDy=0;" edge="1" parent="1" source="E_e-mIuuizZhB7MjT7xw-11" target="E_e-mIuuizZhB7MjT7xw-17">
          <mxGeometry relative="1" as="geometry">
            <Array as="points">
              <mxPoint x="520" y="310" />
              <mxPoint x="520" y="440" />
            </Array>
          </mxGeometry>
        </mxCell>
        <mxCell id="E_e-mIuuizZhB7MjT7xw-11" value="ABA" style="rounded=1;whiteSpace=wrap;html=1;" vertex="1" parent="1">
          <mxGeometry x="360" y="280" width="120" height="60" as="geometry" />
        </mxCell>
        <mxCell id="E_e-mIuuizZhB7MjT7xw-13" value="{node_id: 2, priority: 1}" style="text;html=1;align=center;verticalAlign=middle;resizable=0;points=[];autosize=1;strokeColor=none;fillColor=none;" vertex="1" parent="1">
          <mxGeometry x="220" y="280" width="140" height="30" as="geometry" />
        </mxCell>
        <mxCell id="E_e-mIuuizZhB7MjT7xw-14" value="{node_id: n, priority: p}" style="text;html=1;align=center;verticalAlign=middle;resizable=0;points=[];autosize=1;strokeColor=none;fillColor=none;" vertex="1" parent="1">
          <mxGeometry x="220" y="450" width="140" height="30" as="geometry" />
        </mxCell>
        <mxCell id="E_e-mIuuizZhB7MjT7xw-15" value="ABARound" style="rounded=1;whiteSpace=wrap;html=1;" vertex="1" parent="1">
          <mxGeometry x="630" y="210" width="120" height="60" as="geometry" />
        </mxCell>
        <mxCell id="E_e-mIuuizZhB7MjT7xw-16" value="ABARound" style="rounded=1;whiteSpace=wrap;html=1;" vertex="1" parent="1">
          <mxGeometry x="630" y="290" width="120" height="60" as="geometry" />
        </mxCell>
        <mxCell id="E_e-mIuuizZhB7MjT7xw-17" value="ABARound" style="rounded=1;whiteSpace=wrap;html=1;" vertex="1" parent="1">
          <mxGeometry x="630" y="410" width="120" height="60" as="geometry" />
        </mxCell>
        <mxCell id="E_e-mIuuizZhB7MjT7xw-18" value=". . ." style="text;html=1;align=center;verticalAlign=middle;resizable=0;points=[];autosize=1;strokeColor=none;fillColor=none;" vertex="1" parent="1">
          <mxGeometry x="670" y="370" width="40" height="30" as="geometry" />
        </mxCell>
        <mxCell id="E_e-mIuuizZhB7MjT7xw-22" value="{round: 0}" style="text;html=1;align=center;verticalAlign=middle;resizable=0;points=[];autosize=1;strokeColor=none;fillColor=none;" vertex="1" parent="1">
          <mxGeometry x="550" y="210" width="80" height="30" as="geometry" />
        </mxCell>
        <mxCell id="E_e-mIuuizZhB7MjT7xw-23" value="{round: 1}" style="text;html=1;align=center;verticalAlign=middle;resizable=0;points=[];autosize=1;strokeColor=none;fillColor=none;" vertex="1" parent="1">
          <mxGeometry x="550" y="290" width="80" height="30" as="geometry" />
        </mxCell>
        <mxCell id="E_e-mIuuizZhB7MjT7xw-24" value="{round: r}" style="text;html=1;align=center;verticalAlign=middle;resizable=0;points=[];autosize=1;strokeColor=none;fillColor=none;" vertex="1" parent="1">
          <mxGeometry x="555" y="410" width="70" height="30" as="geometry" />
        </mxCell>
        <mxCell id="E_e-mIuuizZhB7MjT7xw-25" value=". . ." style="text;html=1;align=center;verticalAlign=middle;resizable=0;points=[];autosize=1;strokeColor=none;fillColor=none;" vertex="1" parent="1">
          <mxGeometry x="510" y="115" width="40" height="30" as="geometry" />
        </mxCell>
        <mxCell id="E_e-mIuuizZhB7MjT7xw-26" value=". . ." style="text;html=1;align=center;verticalAlign=middle;resizable=0;points=[];autosize=1;strokeColor=none;fillColor=none;" vertex="1" parent="1">
          <mxGeometry x="510" y="205" width="40" height="30" as="geometry" />
        </mxCell>
        <mxCell id="E_e-mIuuizZhB7MjT7xw-27" value=". . ." style="text;html=1;align=center;verticalAlign=middle;resizable=0;points=[];autosize=1;strokeColor=none;fillColor=none;" vertex="1" parent="1">
          <mxGeometry x="510" y="465" width="40" height="30" as="geometry" />
        </mxCell>
      </root>
    </mxGraphModel>
  </diagram>
</mxfile>
